{"asset":{"generator":"Khronos glTF Spline I/O v0.0.1","version":"2.0"},"scenes":[{"nodes":[0]}],"nodes":[{"name":"Untitled","children":[1,2]},{"name":"Ellipse","matrix":[1,0,0,0,0,1,0,0,0,0,1,0,26.5,57,-55,1],"mesh":0,"children":[3]},{"name":"Default Camera","camera":0,"translation":[-95.15459210457142,148.14465392618666,984.3773489442385],"rotation":[-0.07419130684783616,-0.04803098495853534,-0.003577504445672595,0.9960802557696166],"children":[4]},{"name":"Empty Object","matrix":[1,0,0,0,0,0.9999018636851101,0.014009389674150791,0,0,-0.014009389674150791,0.9999018636851101,0,-6.849999999999994,8,72.95,1],"children":[5,6,7]},{"name":"Default Directional Light","translation":[850000,1300000,1000000],"rotation":[-0.45895513091666534,0.1367267597249462,-0.25064115022945466,0.8413352451859125],"extensions":{"KHR_lights_punctual":{"light":0}}},{"name":"Empty Object","matrix":[1,0,0,0,0,0.9999018636851115,-0.01400938967415081,0,0,0.01400938967415081,0.9999018636851115,0,2.3499999999999908,-10.630057925833249,-44.899509953811446,1],"children":[8,9,10]},{"name":"Cube 5","matrix":[0,-1.0000000000000002,1.196959198423997e-16,0,-0.9998476951563914,-4.440892098500626e-16,0.01745240643728352,0,-0.01745240643728352,-1.231653667943533e-16,-0.9998476951563915,0,11.500000000000028,28.999999999999964,-74.95036984103609,1],"mesh":1},{"name":"Cube 4","matrix":[0.9996954135095478,-0.017452406437283515,-0.017449748351250485,0,-0.017449748351250485,-0.9998476951563913,0.0003045864904522574,0,-0.017452406437283515,-1.2248774043654986e-16,-0.9998476951563913,0,11.500000000000028,-18.000000000000036,-74.95036984103609,1],"mesh":2},{"name":"Cube 3","matrix":[0,-0.9999018636851101,-0.014009389674150673,0,-0.9998476951563914,-0.0002444975625320064,0.017450693722429786,0,-0.01745240643728351,0.014007255976247295,-0.9997495737881374,0,6.075000000000017,-0.9999018636850495,7.752479214140351e-15,1],"mesh":3},{"name":"Cube 6","matrix":[0.9996954135095478,-0.01720623339806126,-0.017692533459783097,0,-0.017449748351250485,-0.9997538408589715,-0.013702699376790896,0,-0.017452406437283515,0.014007255976247291,-0.9997495737881372,0,46.92500000000001,-1.0658141036401503e-14,0.014009389674157546,1],"mesh":4},{"name":"Cube","matrix":[0.9996954135095478,-0.01720623339806126,-0.017692533459783097,0,-0.017449748351250485,-0.9997538408589715,-0.013702699376790896,0,-0.017452406437283515,0.014007255976247291,-0.9997495737881372,0,-46.92499999999998,-1.0658141036401503e-14,0.014009389674157546,1],"mesh":5}],"cameras":[{"type":"orthographic","orthographic":{"xmag":1920,"ymag":969,"zfar":50000,"znear":-50000}}],"meshes":[{"primitives":[{"attributes":{"POSITION":1,"NORMAL":2,"TEXCOORD_0":3},"indices":0}]},{"primitives":[{"attributes":{"POSITION":5,"NORMAL":6,"TEXCOORD_0":7},"indices":4}]},{"primitives":[{"attributes":{"POSITION":9,"NORMAL":10,"TEXCOORD_0":11},"indices":8}]},{"primitives":[{"attributes":{"POSITION":13,"NORMAL":14,"TEXCOORD_0":15},"indices":12}]},{"primitives":[{"attributes":{"POSITION":17,"NORMAL":18,"TEXCOORD_0":19},"indices":16}]},{"primitives":[{"attributes":{"POSITION":21,"NORMAL":22,"TEXCOORD_0":23},"indices":20}]}],"buffers":[{"uri":"data:application/octet-stream;base64,","byteLength":362448},{"uri":"data:application/octet-stream;base64,","byteLength":840},{"uri":"data:application/octet-stream;base64,","byteLength":840},{"uri":"data:application/octet-stream;base64,","byteLength":840},{"uri":"data:application/octet-stream;base64,","byteLength":840},{"uri":"data:application/octet-stream;base64,","byteLength":840}],"bufferViews":[{"buffer":0,"byteOffset":0,"byteLength":67536,"target":34963},{"buffer":0,"byteOffset":67536,"byteLength":98304,"target":34962},{"buffer":0,"byteOffset":165840,"byteLength":98304,"target":34962},{"buffer":0,"byteOffset":264144,"byteLength":98304,"target":34962},{"buffer":1,"byteOffset":0,"byteLength":72,"target":34963},{"buffer":1,"byteOffset":72,"byteLength":288,"target":34962},{"buffer":1,"byteOffset":360,"byteLength":288,"target":34962},{"buffer":1,"byteOffset":648,"byteLength":192,"target":34962},{"buffer":2,"byteOffset":0,"byteLength":72,"target":34963},{"buffer":2,"byteOffset":72,"byteLength":288,"target":34962},{"buffer":2,"byteOffset":360,"byteLength":288,"target":34962},{"buffer":2,"byteOffset":648,"byteLength":192,"target":34962},{"buffer":3,"byteOffset":0,"byteLength":72,"target":34963},{"buffer":3,"byteOffset":72,"byteLength":288,"target":34962},{"buffer":3,"byteOffset":360,"byteLength":288,"target":34962},{"buffer":3,"byteOffset":648,"byteLength":192,"target":34962},{"buffer":4,"byteOffset":0,"byteLength":72,"target":34963},{"buffer":4,"byteOffset":72,"byteLength":288,"target":34962},{"buffer":4,"byteOffset":360,"byteLength":288,"target":34962},{"buffer":4,"byteOffset":648,"byteLength":192,"target":34962},{"buffer":5,"byteOffset":0,"byteLength":72,"target":34963},{"buffer":5,"byteOffset":72,"byteLength":288,"target":34962},{"buffer":5,"byteOffset":360,"byteLength":288,"target":34962},{"buffer":5,"byteOffset":648,"byteLength":192,"target":34962}],"accessors":[{"bufferView":0,"byteOffset":0,"componentType":5125,"count":16884,"type":"SCALAR","min":[0],"max":[3071]},{"bufferView":1,"byteOffset":0,"componentType":5126,"count":3072,"type":"VEC3","min":[-146.5,-142,0],"max":[146.5,142,30]},{"bufferView":2,"byteOffset":0,"componentType":5126,"count":3072,"type":"VEC3","min":[-0.9996598958969116,-0.9996997714042664,-1],"max":[0.9996598958969116,0.9996997714042664,1]},{"bufferView":3,"byteOffset":0,"componentType":5126,"count":3072,"type":"VEC2","min":[0,0],"max":[1,1]},{"bufferView":4,"byteOffset":0,"componentType":5123,"count":36,"type":"SCALAR","min":[0],"max":[23]},{"bufferView":5,"byteOffset":0,"componentType":5126,"count":24,"type":"VEC3","min":[-10,-50,-10],"max":[10,50,10]},{"bufferView":6,"byteOffset":0,"componentType":5126,"count":24,"type":"VEC3","min":[-1,-1,-1],"max":[1,1,1]},{"bufferView":7,"byteOffset":0,"componentType":5126,"count":24,"type":"VEC2","min":[0,0],"max":[1,1]},{"bufferView":8,"byteOffset":0,"componentType":5123,"count":36,"type":"SCALAR","min":[0],"max":[23]},{"bufferView":9,"byteOffset":0,"componentType":5126,"count":24,"type":"VEC3","min":[-10,-50,-10],"max":[10,50,10]},{"bufferView":10,"byteOffset":0,"componentType":5126,"count":24,"type":"VEC3","min":[-1,-1,-1],"max":[1,1,1]},{"bufferView":11,"byteOffset":0,"componentType":5126,"count":24,"type":"VEC2","min":[0,0],"max":[1,1]},{"bufferView":12,"byteOffset":0,"componentType":5123,"count":36,"type":"SCALAR","min":[0],"max":[23]},{"bufferView":13,"byteOffset":0,"componentType":5126,"count":24,"type":"VEC3","min":[-10,-50,-10],"max":[10,50,10]},{"bufferView":14,"byteOffset":0,"componentType":5126,"count":24,"type":"VEC3","min":[-1,-1,-1],"max":[1,1,1]},{"bufferView":15,"byteOffset":0,"componentType":5126,"count":24,"type":"VEC2","min":[0,0],"max":[1,1]},{"bufferView":16,"byteOffset":0,"componentType":5123,"count":36,"type":"SCALAR","min":[0],"max":[23]},{"bufferView":17,"byteOffset":0,"componentType":5126,"count":24,"type":"VEC3","min":[-10,-50,-10],"max":[10,50,10]},{"bufferView":18,"byteOffset":0,"componentType":5126,"count":24,"type":"VEC3","min":[-1,-1,-1],"max":[1,1,1]},{"bufferView":19,"byteOffset":0,"componentType":5126,"count":24,"type":"VEC2","min":[0,0],"max":[1,1]},{"bufferView":20,"byteOffset":0,"componentType":5123,"count":36,"type":"SCALAR","min":[0],"max":[23]},{"bufferView":21,"byteOffset":0,"componentType":5126,"count":24,"type":"VEC3","min":[-10,-50,-10],"max":[10,50,10]},{"bufferView":22,"byteOffset":0,"componentType":5126,"count":24,"type":"VEC3","min":[-1,-1,-1],"max":[1,1,1]},{"bufferView":23,"byteOffset":0,"componentType":5126,"count":24,"type":"VEC2","min":[0,0],"max":[1,1]}],"extensions":{"KHR_lights_punctual":{"lights":[{"type":"directional","name":"Default Directional Light","color":[0.6926829268292682,0.4537917906008328,0.010136823319452716],"intensity":3.607}]}},"extensionsUsed":["KHR_lights_punctual"]}